<svg class=" first-level" version="1.1" id="Layer_1" xmlns="http://www.w3.org/2000/svg" xmlns:xlink="http://www.w3.org/1999/xlink" x="0px" y="0px" viewBox="0 0 568.237915 125.466507" style="enable-background:new 0 0 568.237915 125.466507;" xml:space="preserve">
<g>
<path class="signpath" d="M119.8287048,8.4763165c-9.464798,1.3896008-18.4121017,5.2758007-27.0648956,9.0345993l-2.9776001,1.2891006
l-3.341301,1.4311008c-8.6992035,3.7187996-17.6220016,7.553299-26.0658989,12.5864983
c-0.1445007-0.3959999-0.3579025-0.7709999-0.6743011-1.0888996c-1.1693993-1.1742992-3.0689011-1.1782112-4.2426987-0.0093002
c-2.2329025,2.2236996-4.0888023,4.8080883-5.8833008,7.3071995c0,0-2.4897003,3.3403015-2.7924995,3.7465019
c-3.4204025,3.094799-6.6513023,6.4013901-9.7895012,9.6694984c-2.3998985,2.4990005-4.8818016,5.0834999-7.3691998,7.4560013
c-4.3432007,4.1431007-8.4082012,7.6088905-12.7939014,10.9076958l-0.9193993,0.6495056
c-3.1122999,2.1590958-8.0571594,5.5887985-8.0571594,9.4990005c0,0.5625,0.10254,1.1346893,0.3271499,1.714798
c0.5996103,1.5468903,1.8017597,2.5937958,3.2978106,2.8731003c3.2783995,0.6132965,6.5263996-2.5918045,9.5727997-5.9287033
l0.4717007-0.5097961c0.0009995-0.0009995,3.8944988-3.7285004,3.8944988-3.7285004
c2.8906002-2.6983032,5.8799-5.4868011,8.4364986-8.8740005c0.7798004-1.0327988,1.7193031-2.0381012,2.7144012-3.1026001
c1.3027-1.394001,2.6499023-2.8353996,3.8179016-4.5268021c1.6655006-2.4130974,3.7001991-4.4673004,5.8544006-6.6415977
c1.6553001-1.6709023,3.3624001-3.403801,4.9394989-5.3453026c1.8295975-1.6371994,3.6913986-3.2157974,5.6376991-4.6102982
c9.8760033-7.077198,20.6138039-11.6674995,31.9818993-16.5273991l3.3531036-1.4360008l2.9980011-1.2978001
c8.2934952-3.6021004,16.8690948-7.327199,25.5067902-8.5952997c2.9097061-0.4271994,8.2544022-1.2113991,9.658699,1.0538006
c0.1724091,0.2772999,0.319397,0.665,0.1065063,1.4369993c-0.7041016,2.5570889-4.3169022,5.7754002-6.5967026,6.9570007
c-7.7095032,3.9950886-16.3617935,6.6812-24.7294998,9.2782974c-5.4188995,1.6822014-11.0219955,3.421402-16.3812943,5.5132027
l-0.4688034,0.1825867c-6.0131989,2.3447113-12.230896,4.7691116-17.1840973,9.4619141
c-8.8882027,8.4213982-12.6303024,17.4003944-11.1220016,26.6874962c0.9012985,5.5498047,3.3192978,8.6172028,7.1913986,12.0391006
c4.5458984,4.0186005,10.5444031,6.5038986,15.8129044,8.4042969l0.1684952,0.0605011
c6.2919998,2.2714996,13.4033051,4.5372009,18.1548004,2.642601c1.5391006-0.6141968,2.2894974-2.3593979,1.6758041-3.8983994
c-0.6138-1.5391006-2.3584061-2.2891006-3.8975067-1.6757965c-3.0331955,1.2089996-10.9247971-1.63871-13.8959961-2.7119064
l-0.1694031-0.0614929c-4.7348938-1.7080002-10.0863953-3.906311-13.8754959-7.2559052
c-3.0547028-2.6991959-4.6182022-4.6601944-5.2422028-8.5038986c-1.1708984-7.2085114,1.9668007-14.3983994,9.3262024-21.3710976
c4.1000977-3.8848,9.7616959-6.0923004,15.2368011-8.2275009l0.4706955-0.1831017
c5.160202-2.0141983,10.6597061-3.721199,15.9780045-5.372097c8.6181946-2.6753006,17.5292969-5.4409027,25.7118912-9.6816006
c3.0108109-1.5606003,8.2852097-5.8423004,9.6205978-10.6905003c0.6133118-2.2264996,0.3394012-4.3676996-0.7914886-6.1928997
C131.9400024,6.6989169,124.0611038,7.855217,119.8287048,8.4763165z"></path>
</g>
<g>
<path class="signpath" d="M158.3673096,44.4738159c-11.2666016,1.0429993-20.5942078,11.3569984-28.4531097,20.9423981
c-0.6708984,0.8179016-1.3451996,1.705101-1.9960938,2.6274033c-3.1573029,0.7237015-6.3438034,1.3696976-9.7798004,2.0586014
c-0.0820007,0.0165939-3.780304,1.0322876-3.780304,1.0322876c-2.2567978,0.7158127-3.8876953,1.2343063-5.9365005,0.7627106
c-0.9047928-0.2080002-1.6732941-0.6807098-2.5625-1.2285995c-1.7011948-1.0473022-4.0312958-2.4813995-7.5185928-1.6909027
c-1.5018997,0.3404007-3.2461014,1.1811981-5.266098,2.1547928c-2.8579025,1.3779068-8.1767044,3.9414062-9.419899,2.4453049
c-0.1465073-0.1757965-0.314003-0.3788986-0.0254059-1.1171951c1.7871017-4.5672989,13.5108032-11.2817001,16.4912033-11.6795998
c1.1728973-0.1568031,1.8031998-0.1387024,2.192894-0.0987015c-0.1049957,0.8609009-0.5551987,2.3613014-0.8881989,3.4482994
l-0.1356964,0.4428024c-0.0894012,0.2924957-0.131897,0.5878983-0.131897,0.8784943
c0,1.2835922,0.8315964,2.4707031,2.1235962,2.8656998c1.5843964,0.4848022,3.2626953-0.408699,3.7474976-1.9931946
l0.1333008-0.4360046c1.0619965-3.4662971,2.0654984-6.7402954-0.0454025-9.2304955
c-1.9545975-2.3061028-5.3817978-2.1455002-7.7899933-1.8241997c-4.4063034,0.588398-18.4468002,8.1854973-21.2846985,15.4413986
c-1.0171051,2.5996017-0.6636047,5.1337967,0.9960938,7.1347961c4.2412033,5.1054001,11.7036057,1.5078049,16.6416016-0.8720932
c1.5488052-0.7471008,3.1503983-1.5186005,3.9873047-1.7080002c1.0503006-0.2383118,1.5653992,0.0389938,3.0473938,0.9481964
c1.1118011,0.6846008,2.4955978,1.5362015,4.3612976,1.9657974c3.6489029,0.8399048,6.544899-0.0809937,9.0991058-0.8915939
l3.0606003-0.850502c1.7045975-0.3418045,3.3768997-0.6797028,5.0365982-1.0234985
c-0.3858032,1.2206955-0.6206055,2.4394989-0.6206055,3.6231003c0,1.0995941,0.193306,2.1688995,0.6299057,3.1815948
c1.3637009,3.1631012,4.6245041,4.9473038,9.6928024,5.3047028c4.1430969,0.2900009,8.1284943-0.0653992,12.0074005-0.6894989
c-0.2539062,0.1738968-0.4931946,0.3711014-0.7544098,0.5351944l-2.9185028,1.7714996
c-2.8876953,1.7226028-5.8734894,3.5039062-8.5458984,5.8515015c-0.0004883,0-0.4458008,0.3829041-0.4458008,0.3829041
c-1.5516968,1.3202896-3.8959961,3.3163986-4.0702972,6.2127991c-0.0106964,0.1796951-0.016098,0.3526001-0.016098,0.5205994
c0,2.8622971,1.507309,4.0516968,2.4423981,4.5125961c3.3252106,1.6436005,7.5532074-1.1854935,14.6826019-7.3485947
l1.4828949-1.2528992c6.5674133-4.6328049,12.4985046-10.0527039,18.2344055-15.297905
c6.5063019-1.3856964,13.4345093-3.157196,19.7592926-5.8993988c4.3989105-1.9061966,9.3881073-4.3007965,12.9213104-8.6195984
c1.7256012-2.108902,3.5937958-4.7681007,3.5937958-7.3871994c0-0.4429016-0.0536957-0.8848-0.1703949-1.3227997
c-0.4072113-1.528801-1.5166016-2.7084999-3.1236115-3.3208008c-1.5907898-0.6068993-3.3143921-0.655201-5.0672913-0.347599
c0.0307007-0.1734009,0.1185913-0.3344994,0.1185913-0.5107994c0-0.6206017-0.191391-1.2461128-0.5892944-1.7831993
c-0.9864044-1.331501-2.8652954-1.6113014-4.1963043-0.625c-4.1489868,3.0732994-8.1324005,6.418499-11.9843903,9.6532974
l-5.4375,4.5249977l-3.7523956,2.8177948c-1.8287048,1.3174057-3.7192993,2.6807098-5.440506,4.2393112l-0.9481964,0.8651962
c-1.4116058,1.2968979-2.6011047,2.3682022-4.0689087,3.319397c-1.7285004,0.3670959-4.031189,0.8563995-4.031189,0.8563995
c-6.5459137,1.4473038-12.7290039,2.8144073-19.2612,2.3555069c-2.5010071-0.1758118-4.2217102-0.8086014-4.6031036-1.6934052
c-0.092804-0.214798-0.141098-0.4882965-0.141098-0.8144073c0-1.146492,0.6781921-3.0068893,2.0395966-5.289093
c2.0805054-0.5097961,4.1723022-1.0507965,6.3188019-1.6903992c6.4375-1.9169998,12.858902-5.1202011,18.5708008-9.2621994
c1.2294922-0.8915977,8.7079926-7.7066002,8.7079926-13.0341988c0-0.5956993-0.0932007-1.1734009-0.2998047-1.721199
C164.4801025,46.2482147,162.9459076,44.0500145,158.3673096,44.4738159z M158.9199982,50.4484177
c0.0044098-0.0005035,0.0069122-0.0005035,0.0113068-0.0005035c-1.0180969,2.0914001-4.0449982,5.7198029-5.8746033,7.046402
c-4.7249908,3.4267998-9.9759979,6.091301-15.2695007,7.8506012
C143.174408,59.0739174,150.9859009,51.1828156,158.9199982,50.4484177z M183.7897034,67.3918152l0.6175995-0.4380035
c2.1450958-1.5248947,8.2778931-5.8749962,11.6192017-5.7577972c-0.2920074,0.5727005-0.8491058,1.4658012-1.9170074,2.7709999
c-2.6825867,3.2788048-6.9111938,5.2886009-10.6635895,6.915493c-2.4233093,1.0498047-4.9829102,1.9141083-7.574707,2.7070007
C178.4420013,71.4206161,181.065506,69.3142166,183.7897034,67.3918152z"></path>
</g>
<g>
<path class="signpath" d="M237.1734009,42.7360153c-1.9920959,1.7354012-9.0296936,5.4468002-14.1678925,8.1562996
c-0.6934052,0.3656998-1.343811,0.7098999-1.9965973,1.0555992c0.0410004-0.125,0.2338867-0.7108994,0.2338867-0.7108994
l-6.6366882,3.5361023c-3.125,1.7431984-7.2232056,6.0131989-6.5503082,10.0468979
c0.1903992,1.1436005,1.0966949,3.8877029,5.3793945,4.660202l2.121109,0.2265015
c0.8334961,0.0561981,1.8710938,0.1264954,2.2250977,0.3740997c0.2328949,0.1629944,0.5072937,0.7215958,0.7723999,1.2616882
c0.4389954,0.8955078,0.9859009,2.008812,2.0209961,2.9560013c3.4076996,3.1172104,9.9452972,3.3789062,20.5751953,0.8242111
c3.2002106-0.7685013,6.3257141-1.7910004,9.347702-2.7812119l4.1362152-1.3261948l1.0111847-0.3378983l0.4365997-0.1503983
c1.5664062-0.5395126,2.4169006-2.2528992,1.8778992-3.8192978c-0.5395813-1.5664062-2.2285004-2.405304-3.7948914-1.8662109
l-0.4913025,0.1689072l-0.8041992,0.2695999c-0.0009003,0.0004883-4.2377014,1.3598022-4.2377014,1.3598022
c-2.9096985,0.9522018-5.9179993,1.9370956-8.8833008,2.649498c-11.8793945,2.8540039-14.6826935,0.9852982-15.1235962,0.5815048
c-0.1987-0.1812057-0.4458008-0.6846008-0.6846008-1.1719055c-0.5150909-1.0487976-1.2201996-2.4858017-2.719696-3.5345993
c-1.7217102-1.2040977-3.6826019-1.3373985-5.2583008-1.4438972l-1.4614105-0.1445007
c-0.1625977-0.0293007-0.2309875-0.0581017-0.3388977-0.0884094c0.1206055-0.2763901,0.3135071-0.5883904,0.5899048-0.9550896
c1.2402039-0.8013,2.6528015-1.7134018,2.6528015-1.7134018c1.4546051-0.9565086,4.8280945-2.7358017,8.3999023-4.6190987
c7.4901886-3.9502029,12.9731903-6.903801,15.3106079-8.9404106c0.6805878-0.5927887,1.0292816-1.4257889,1.0292816-2.2626915
c0-0.6991997-0.242691-1.4013977-0.7382812-1.969799C240.3175049,41.7780151,238.4225006,41.6477165,237.1734009,42.7360153z"></path>
</g>
<g>
<path class="signpath" d="M236.7286072,40.1384163l-3.2134094,2.0918007c-10.7157898,6.9838982-28.6502838,18.6727982-38.2689972,23.2470016
c-4.3486023,2.067894-8.8471985,4.3218002-14.1566925,7.0927963c-2.4717102,1.2891006-4.6352997,2.8417969-6.7271118,4.3438034
l-3.8319855,2.6346893c-1.3648071,0.9395065-1.8130035,2.8731079-0.875,4.2383041
c0.9384918,1.3652039,2.7025909,1.7793045,4.0682983,0.8418045l4.136795-2.839798
c2.0106964-1.4434052,3.9095917-2.8067017,6.0052948-3.9004059c5.2416992-2.7353973,9.6768036-4.9570999,13.9575043-6.9931946
c9.9810028-4.7461014,28.1264954-16.5723038,38.967804-23.6382027l3.2061005-2.0873985
c1.3885956-0.903801,1.7837067-2.7641106,0.8798981-4.1523018
C239.9728088,39.6286163,238.1172943,39.2341156,236.7286072,40.1384163z"></path>
</g>
<g>
<path class="signpath" d="M363.7047119,12.2556171c-2.4082031,0.1195993-4.9590149,1.9891996-8.0439148,4.4203987l-1.7363892,1.3203011
l-4.7949219,3.3055992c-5.3583984,3.7446995-10.8983765,7.6172009-16.7255859,9.9043007l-2.1133118,0.8408985
c-6.7489929,2.7036018-15.9911804,6.4057007-21.8856812,4.4770012c-1.5742188-0.5156097-3.2686157,0.3432999-3.7837219,1.9179993
c-0.5155945,1.5746994,0.3433228,3.269001,1.9180298,3.7841988c7.9672852,2.6074028,18.3783875-1.5634995,25.9828796-4.6093979
l2.0732117-0.8256989c6.4892883-2.5469017,12.3262024-6.6265011,17.9707031-10.5713005l4.6991882-3.2397003
c0.0010071-0.0004997,2.1104126-1.5918007,2.1104126-1.5918007c0.5332031-0.4209118,1.4101868-1.1079102,2.280304-1.734911
c-2.3682251,4.1353111-7.7442017,10.9468117-10.8770142,14.298811
c-7.9003906,8.4527016-16.2344055,15.6054993-23.343689,21.4878006
c-9.4179993,7.7915001-17.9179993,14.1274948-26.7481079,19.9404984c0,0-1.4590149,1.0146027-2.9862976,2.0761032
c-0.6885071-0.1923065-1.378418-0.3828049-2.092804-0.5156021c-9.0664062-1.6973038-21.8598022-0.8496094-30.5776062,6.6182022
c-2.1156921,1.8133926-5.5634766,5.4530945-4.8837891,9.4667969c0.273407,1.6132965,1.3158875,3.8173904,4.7323914,5.1542969
c4.0537109,1.5868988,9.1465149-0.4131012,12.8666992-1.8759995l1.2763977-0.4942017
c6.7098999-2.5057983,12.8076172-6.8563995,18.7041016-11.0643997c0,0,0.6802063-0.4726944,0.9028015-0.6269989
c4.3916016,1.8516006,8.4971008,5.0839996,12.4956055,8.2481003c2.0263977,1.6035004,4.1221008,3.260704,6.2402954,4.726593
c2.5516968,1.7675095,5.4746094,4.0244064,8.5682983,6.4140015c6.6737976,5.1543045,14.2362976,10.9951096,20.6054993,13.7715073
c1.5195007,0.6621017,3.2890015-0.0332031,3.9492188-1.5508041c0.1698914-0.3905945,0.2510071-0.7968979,0.2510071-1.197197
c0-1.1583023-0.6739197-2.2597961-1.8018188-2.7519989c-5.6885071-2.478508-12.9385071-8.0791016-19.335907-13.0195084
c-3.1582031-2.4394913-6.1405945-4.7431946-8.8212891-6.5995941c-1.960907-1.3574982-3.8897095-2.8828964-5.9326172-4.4990997
c-3.375-2.669899-6.8266907-5.3730011-10.5839844-7.4570007c8.9169922-5.8856964,17.5048828-12.2885971,26.9960938-20.1405945
c7.2568054-6.0039024,15.7705078-13.314003,23.9023132-22.0142021
c2.4394836-2.6097984,13.6103821-14.9242992,13.6103821-21.4901981c0-0.6577005-0.1112976-1.2583113-0.3565063-1.7847004
C368.0415955,13.9655056,366.8326111,12.1022167,363.7047119,12.2556171z M267.0660095,92.5935059
c-0.8320007-0.3261948-1.0155945-0.6035919-1.0170898-0.6064911c-0.0385132-0.3037033,0.5449829-1.8662033,2.8852844-3.8711014
c5.9769897-5.1201019,14.7539062-6.3134995,21.7695007-5.7557983c-4.4736023,3.1220016-9.0625,6.0672989-13.7807007,7.8291016
l-1.3716125,0.5311966C273.236908,91.6296158,268.9288025,93.3220139,267.0660095,92.5935059z"></path>
</g>
<g>
<path class="signpath" d="M356.3218994,61.7551155c-3.4638977,2.3081017-9.1397095,6.8998985-8.217804,11.7191963
c0.3565063,1.8613052,1.8135071,4.2998047,6.7323914,5.3467026c6.1836243,1.3153992,12.9854126-1.8291016,17.5645142-4.3076019
c1.4570007-0.7891006,1.9979858-2.6093979,1.2089844-4.0663986c-0.7880859-1.4570999-2.609375-1.9990997-4.0663757-1.2099991
c-2.1573181,1.1679993-8.7217102,4.722702-13.4590149,3.7148972c-1.2041016-0.2558975-1.7519836-0.5380936-1.9981079-0.6982956
c0.242218-0.9393997,2.1963196-3.2631989,5.5625-5.5054016c3.7842102-2.5214005,8.9659119-5.9740982,13.2530212-5.8740005
c2.2225952,0.0522919,4.8260803,2.1924019,5.2225952,3.8130035c0.0772095,0.3153992,0.2041016,0.8412857-1.0975952,1.5590973
c-1.4522095,0.7983017-1.9815063,2.6224976-1.1836243,4.0746994c0.7988281,1.4521027,2.6230164,1.9813995,4.0742188,1.1826019
c3.3397827-1.8358994,4.8475952-4.9165039,4.0350952-8.2406998c-1.0643921-4.3568993-6.1629944-8.2759018-10.9100952-8.3866997
C366.862915,54.7311172,360.7710876,58.7907143,356.3218994,61.7551155z"></path>
</g>
<g>
<path class="signpath" d="M376.5474854,60.6091156l-1.257782,1.6688995c-2.7256165,3.5620041-5.8145142,7.5990982-4.1329041,11.482399
c1.5097961,3.4873047,5.8536072,4.3096008,8.9892883,4.6259995c4.3612976,0.4384995,8.8027039-0.7509995,13.0078125-3.344696
c2.8027954,1.8905945,7.0712891,1.9325943,8.9385071,1.8417892c4.593689-0.2216949,8.9091797-1.86129,12.8270874-4.8720932
c0.3272095-0.2509995,0.593811-0.4921951,0.8526001-0.7343979c0.2939148,5.1523972,5.1582031,5.8506012,6.7998047,6.0712967
c3.9794922,0.5361938,9.156189-0.5995941,12.5888977-2.7606964c2.8789062-1.8125,4.5018921-4.6582031,5.9335022-7.1679993
l0.9853821-1.6849976c0.835907-1.4302063,0.3896179-3.3252029-1.039978-4.1621132
c-1.429718-0.8364906-3.2333984-0.4140892-4.069397,1.0156097l-1.0879211,1.8588982
c-1.1874695,2.0830002-2.3104858,4.050705-3.9188843,5.0634003c-2.2362976,1.4082031-6.0097961,2.2393036-8.5907898,1.8916016
c-0.9971008-0.134697-1.4405212-0.2714005-1.6319275-0.3544006c-0.0087891-0.0967026-0.0204773-0.2138977-0.0204773-0.2138977
l0.0243835-0.6646042c0.031311-0.6865005,0.0556946-1.3641968,0.0556946-2.0228958
c0-2.3311005-0.2978821-4.4190025-1.6142883-5.7803001c-0.7723999-0.7993011-1.805603-1.2324104-2.907196-1.2187004
c-2.9131165,0.0375977-4.0693054,2.8368988-4.5625,4.032196l-0.1523132,0.3584061
c-0.476593,0.9960938-0.6337891,1.2040939-1.2998047,1.7162933c-2.9296875,2.2509995-6.1132812,3.4741058-9.4618835,3.6362
c-1.0577087,0.0508041-2.0126953-0.0126953-2.8486938-0.1229935c3.5517883-2.9517059,4.4062805-4.4151001,4.4062805-5.9033051
c0-0.0927963-0.0029907-0.1860962-0.0087891-0.2792969c-0.069397-1.126503-0.6972961-2.1368027-1.6777954-2.7036018
c-0.9814148-0.5659981-2.625-0.9902992-4.8924866,0.1996994c-2.3369141,1.2270012-5.8262024,4.7070045-6.1944275,7.4892006
c-3.2733765,2.1787033-6.5760803,3.1737976-9.8387756,2.8457031c-2.9131165-0.2929993-3.8330078-0.8701019-4.0557251-1.0488052
c0.0391235-1.096199,2.2715149-4.016098,3.3633118-5.442894l1.3417969-1.7827072
c0.4013062-0.5326958,0.593689-1.149395,0.593689-1.7611961c0-0.9081993-0.4227905-1.8051987-1.2137756-2.4009018
C379.4537048,58.9826164,377.5444946,59.2858162,376.5474854,60.6091156z"></path>
</g>
<g>
<path class="signpath" d="M442.7739868,67.0578156l-0.5546875,0.2759018l-1.9002991,0.9746017
c-2.7207031,1.4184952-5.0704041,2.6435928-7.9208984,2.8036957c-1.6542969,0.092804-2.9200134,1.5087967-2.8272095,3.1631012
c0.092804,1.6542969,1.5088196,2.919899,3.1631165,2.8271027c4.1425781-0.2324066,7.3026733-1.8798065,10.3583984-3.4736023
l1.7938843-0.919899c0.0010071-0.0009995,0.5625-0.280304,0.5625-0.280304
c1.1484985-0.5722961,2.3370056-1.1631012,2.6465149-1.1747971c0.2724915-0.0098038,1.445282,0.5058899,2.4794922,0.9608917
l1.319397,0.57621c0.5292053,0.2285004,3.5907898,1.1757889,7.5086975,2.0410004
c0.4003906,1.5253983,1.4873047,3.2910004,3.8721008,5.1455002c5.1328125,3.9921951,14.9258118,4.4638977,21.3847961,1.0312881
c4.4169922-2.3476944,6.679718-6.1552887,6.3720093-10.7206879c-0.1112976-1.6533127-1.5419006-2.9028015-3.1953125-2.7915039
c-1.6532898,0.1112976-2.9022827,1.5419998-2.7909851,3.1948013c0.0536804,0.7929993,0.2157898,3.2031021-3.2012024,5.0195007
c-3.5869141,1.9062958-9.3182983,2.0312958-12.9912109,0.551796c3.8633118,0.2617035,7.4649048-0.0059052,9.5967102-1.4276962
c1.5469055-1.030304,2.3858032-2.586998,2.3642883-4.3819046c-0.0108032-0.8955002-0.3954773-3.8939972-4.889679-4.8623047
c-4.2392273-0.9140015-11.3994141,0.1475067-14.7890015,3.5034103c-2.9258118-0.5727005-5.5371094-1.2402039-6.8652954-1.8129044
l-1.2793274-0.5590973C448.3960876,64.7019119,447.4419861,64.7331161,442.7739868,67.0578156z"></path>
</g>
<g>
<path class="signpath" d="M490.3696899,69.7844162c-2.7958984,1.1743011-4.757782,3.7855988-5.8299866,7.7621994
c-0.4317017,1.5996017,0.5155945,3.2461014,2.1152039,3.6776962c1.5995789,0.4317017,3.2460938-0.5155945,3.6776733-2.1151962
c0.3887024-1.4413986,1.1133118-3.2696075,2.3604126-3.7929993c2.3641968-0.9932022,7.1845093,1.7167969,10.7041016,3.6952972
c1.8612976,1.0468979,3.618103,2.0342026,5.2225952,2.6748047c13.218811,5.2743988,26.0361938,3.8476944,38.4326782,2.4677963
c3.4521484-0.3847961,7.0214233-0.7813034,10.5350952-1.0253983c1.6524658-0.1133041,2.9004517-1.5468979,2.7861328-3.1992035
c-0.1141968-1.6523972-1.546814-2.9003983-3.2001953-2.7851944c-3.6386108,0.2509995-7.2714233,0.6552887-10.7850952,1.0468979
c-12.1992188,1.3573914-23.7217407,2.6406021-35.5440063-2.0771027c-1.2352905-0.4932022-2.8242188-1.386795-4.5068054-2.3330002
C501.2301025,70.9099121,495.4400024,67.655014,490.3696899,69.7844162z"></path>
</g>
</svg>